<?xml version="1.0" standalone="no"?>
<!DOCTYPE svg PUBLIC "-//W3C//DTD SVG 20010904//EN"
 "http://www.w3.org/TR/2001/REC-SVG-20010904/DTD/svg10.dtd">
<svg version="1.0" xmlns="http://www.w3.org/2000/svg"
 width="400.000000pt" height="400.000000pt" viewBox="0 0 400.000000 400.000000"
 preserveAspectRatio="xMidYMid meet">

<g transform="translate(0.000000,400.000000) scale(0.100000,-0.100000)"
fill="#000000" stroke="none">
<path d="M0 2000 l0 -2000 2000 0 2000 0 0 2000 0 2000 -2000 0 -2000 0 0
-2000z m1741 205 c86 -44 139 -110 139 -172 0 -26 -3 -29 -34 -29 -27 0 -33 3
-24 13 6 7 -16 1 -48 -14 -50 -24 -72 -28 -144 -28 -69 0 -94 5 -133 24 -58
29 -58 43 1 88 24 18 37 33 29 33 -8 0 -26 -9 -40 -20 -24 -19 -67 -27 -80
-14 -11 11 30 80 58 98 74 48 203 58 276 21z m765 -6 c33 -17 56 -38 71 -65
13 -21 23 -42 23 -46 0 -16 -63 -7 -87 12 -14 11 -32 20 -40 20 -8 0 5 -15 29
-33 59 -45 59 -60 1 -87 -71 -34 -163 -38 -238 -10 -33 12 -79 21 -102 21 -40
-2 -43 0 -43 24 0 39 36 101 76 131 88 67 217 81 310 33z m-1071 -140 c4 -6
-3 -13 -16 -16 l-23 -6 22 -8 c30 -11 28 -25 -3 -25 -20 0 -25 5 -25 26 0 15
3 30 7 33 10 10 31 8 38 -4z m1173 -7 c4 -14 -34 -16 -42 -3 -6 10 13 21 28
17 6 -1 12 -8 14 -14z m2 -32 c0 -5 -9 -10 -19 -10 -11 0 -28 -3 -38 -6 -16
-6 -16 -5 2 9 22 18 55 22 55 7z"/>
<path d="M1630 2100 c0 -13 -7 -20 -20 -20 -23 0 -27 -29 -8 -48 18 -18 69
-16 62 3 -4 9 0 15 10 15 21 0 21 34 0 54 -22 22 -44 20 -44 -4z"/>
<path d="M1795 2086 c11 -10 28 -30 37 -45 12 -17 18 -21 18 -10 0 8 -10 24
-22 35 -30 26 -60 44 -33 20z"/>
<path d="M1600 1990 c8 -5 26 -10 40 -10 14 0 32 5 40 10 11 7 -1 10 -40 10
-39 0 -51 -3 -40 -10z"/>
<path d="M2351 2113 c4 -25 -3 -35 -21 -30 -16 4 -20 0 -20 -17 0 -30 18 -46
52 -46 20 0 26 4 22 15 -4 9 0 15 10 15 21 0 21 34 0 54 -16 16 -45 22 -43 9z"/>
<path d="M2187 2079 c-39 -32 -48 -59 -19 -59 13 0 14 2 4 9 -11 6 -5 17 24
45 45 44 41 47 -9 5z"/>
<path d="M2320 1990 c8 -5 26 -10 40 -10 14 0 32 5 40 10 11 7 -1 10 -40 10
-39 0 -51 -3 -40 -10z"/>
</g>
</svg>
